<svg id="COLOR_LINE" height="512" viewBox="0 0 74 74" width="512" xmlns="http://www.w3.org/2000/svg" data-name="COLOR LINE">
<path d="m38.329 4.187c-4.978 0-8.36 11.117-8.36 21.9a15.444 15.444 0 0 0 -13.874.068c.005-14.118 9.957-21.968 22.234-21.968z" fill="#89c5cd"/>
<path d="m16.1 26.657a.5.5 0 0 1 -.5-.5c0-13.44 9.136-22.47 22.735-22.47a.5.5 0 0 1 0 1c-4.188 0-7.861 10-7.861 21.4a.5.5 0 0 1 -.73.444 14.884 14.884 0 0 0 -13.416.07.5.5 0 0 1 -.228.056zm19.38-21.827c-11.153 1.147-18.545 9.078-18.874 20.528a15.959 15.959 0 0 1 12.869-.064c.13-8.516 2.345-17.375 6.005-20.464z" fill="#323c6b"/><path d="m60.575 26.157c-4.532-2.4-9.922-2.712-13.874-.068 0-10.785-3.393-21.9-8.372-21.9 12.289-.002 22.246 7.848 22.246 21.968z" fill="#89c5cd"/>
<path d="m42.541 7.2c8.278 2.056 14.524 8.246 15.671 17.93a17.27 17.27 0 0 1 2.363 1.028c0-14.119-9.957-21.969-22.246-21.969 1.585-.002 3.007 1.127 4.212 3.011z" fill="#6eaaad"/><path d="m46.7 26.089q-8.376-5.172-16.732 0c0-10.785 3.382-21.9 8.36-21.9s8.372 11.111 8.372 21.9z" fill="#e1e6e9"/><path d="m46.7 26.588a.506.506 0 0 1 -.263-.074c-5.459-3.369-10.761-3.37-16.206 0a.5.5 0 0 1 -.763-.426c0-10.773 3.388-22.4 8.861-22.4s8.871 11.627 8.871 22.4a.5.5 0 0 1 -.5.5zm-8.37-3.579a15.948 15.948 0 0 1 7.863 2.2c-.183-11.03-3.778-20.522-7.863-20.522s-7.671 9.491-7.853 20.521a15.9 15.9 0 0 1 7.853-2.199z" fill="#323c6b"/><path d="m38.33 53.942a.5.5 0 0 1 -.388-.184l-22.234-27.285a.5.5 0 1 1 .775-.632l20.623 25.308-7.615-24.915a.5.5 0 0 1 .956-.292l8.361 27.358a.5.5 0 0 1 -.243.587.494.494 0 0 1 -.235.055z" fill="#323c6b"/><path d="m38.33 53.942a.5.5 0 0 1 -.478-.646l8.36-27.354a.5.5 0 1 1 .956.292l-7.615 24.915 20.623-25.308a.5.5 0 1 1 .775.632l-22.234 27.285a.5.5 0 0 1 -.387.184z" fill="#323c6b"/><rect fill="#e7aa6c" height="18.744" rx="2.948" width="21.375" x="27.648" y="53.442"/><path d="m46.074 72.687h-15.474a3.453 3.453 0 0 1 -3.449-3.449v-12.847a3.453 3.453 0 0 1 3.449-3.449h15.474a3.452 3.452 0 0 1 3.448 3.449v12.847a3.452 3.452 0 0 1 -3.448 3.449zm-15.474-18.745a2.452 2.452 0 0 0 -2.449 2.449v12.847a2.452 2.452 0 0 0 2.449 2.449h15.474a2.451 2.451 0 0 0 2.448-2.449v-12.847a2.451 2.451 0 0 0 -2.448-2.449z" fill="#323c6b"/><path d="m27.648 57.469h21.375v10.691h-21.375z" fill="#d09865"/><g fill="#323c6b"><path d="m49.022 68.66h-21.375a.5.5 0 0 1 -.5-.5v-10.691a.5.5 0 0 1 .5-.5h21.375a.5.5 0 0 1 .5.5v10.691a.5.5 0 0 1 -.5.5zm-20.875-1h20.375v-9.691h-20.375z"/><path d="m49.022 68.66h-21.375a.5.5 0 0 1 -.5-.5v-10.691a.5.5 0 0 1 .5-.5h21.375a.5.5 0 0 1 .5.5v10.691a.5.5 0 0 1 -.5.5zm-20.875-1h20.375v-9.691h-20.375z"/><path d="m32.857 68.66a.5.5 0 0 1 -.5-.5v-10.691a.5.5 0 1 1 1 0v10.691a.5.5 0 0 1 -.5.5z"/><path d="m38.335 68.66a.5.5 0 0 1 -.5-.5v-10.691a.5.5 0 0 1 1 0v10.691a.5.5 0 0 1 -.5.5z"/><path d="m43.813 68.66a.5.5 0 0 1 -.5-.5v-10.691a.5.5 0 0 1 1 0v10.691a.5.5 0 0 1 -.5.5z"/><path d="m59.133 11.742a.5.5 0 0 1 -.428-.242 7.648 7.648 0 0 0 -.548-.772.5.5 0 1 1 .78-.625 8.267 8.267 0 0 1 .623.88.5.5 0 0 1 -.427.759z"/><path d="m63.437 23.917a.5.5 0 0 1 -.5-.455 25.029 25.029 0 0 0 -2.911-9.8.5.5 0 0 1 .877-.481 26.046 26.046 0 0 1 3.031 10.195.5.5 0 0 1 -.453.544z"/><path d="m52.022 60.229a.5.5 0 0 1 -.5-.5v-.562a.5.5 0 0 1 1 0v.562a.5.5 0 0 1 -.5.5z"/><path d="m51.8 71.333a.471.471 0 0 1 -.134-.018.5.5 0 0 1 -.348-.616 5.405 5.405 0 0 0 .2-1.461v-6.988a.5.5 0 0 1 1 0v6.988a6.42 6.42 0 0 1 -.242 1.73.5.5 0 0 1 -.476.365z"/><path d="m60.575 26.657a.506.506 0 0 1 -.234-.058c-4.65-2.464-9.769-2.5-13.362-.095a.5.5 0 0 1 -.778-.416c0-11.4-3.679-21.4-7.871-21.4a.5.5 0 1 1 0-1c13.6 0 22.745 9.03 22.745 22.47a.5.5 0 0 1 -.5.5zm-7.4-2.93a16.2 16.2 0 0 1 6.891 1.614c-.338-11.441-7.731-19.363-18.883-20.511 3.651 3.08 5.865 11.884 6.01 20.373a12.28 12.28 0 0 1 5.979-1.476z"/></g><path d="m22.571 16.892a.6.6 0 0 1 -.517-.9 16.009 16.009 0 0 1 5.781-5.783.6.6 0 0 1 .607 1.035 14.838 14.838 0 0 0 -5.353 5.356.6.6 0 0 1 -.518.292z" fill="#fff"/><path d="m21 20.483a.632.632 0 0 1 -.154-.02.6.6 0 0 1 -.426-.734 7.327 7.327 0 0 1 .459-1.284.6.6 0 0 1 1.115.445 6.316 6.316 0 0 0 -.414 1.146.6.6 0 0 1 -.58.447z" fill="#fff"/></svg>