<svg xmlns="http://www.w3.org/2000/svg" xmlns:xlink="http://www.w3.org/1999/xlink" xml:space="preserve" version="1.1" style="shape-rendering:geometricPrecision;text-rendering:geometricPrecision;image-rendering:optimizeQuality;" viewBox="0 0 60000 75000" x="0px" y="0px" fill-rule="evenodd" clip-rule="evenodd"><defs><style type="text/css">
   
    .fil0 {fill:white;fill-rule:nonzero}
   
  </style></defs><g><path class="fil0" d="M36035 2871c-161,-25 -286,-144 -326,-294 -421,-342 -891,-584 -1415,-714 -899,-222 -1971,-121 -3235,366 178,156 353,327 523,513 3292,3584 1703,21275 661,32882 -323,3594 -593,6600 -649,8397 315,14 630,34 945,58 4,-8 9,-16 14,-24 2639,-4316 5938,-17912 6184,-28611 82,-3553 -175,-6777 -907,-9219 -428,-1428 -1017,-2579 -1794,-3355zm-12795 4085c74,-116 229,-150 345,-75 116,74 150,229 75,345 -365,570 -655,1198 -866,1845 -217,666 -349,1351 -390,2014 -8,138 -126,242 -264,234 -138,-8 -242,-126 -234,-264 44,-706 184,-1434 413,-2139 223,-687 532,-1354 920,-1960zm4958 52048c-93,-6 -176,-43 -240,-100 -115,-58 -200,-171 -216,-308l-508 -4149c-7,-56 -2,-111 14,-162 -2,-8 -4,-15 -5,-23 -1,-6 -2,-11 -3,-17l0 0c-236,-1582 -608,-3491 -1229,-5215 -580,-1610 -1375,-3061 -2478,-3928 -2698,-1208 -5431,-3988 -7790,-7216 -3205,-4385 -5742,-9621 -6554,-12834 -819,-3238 -858,-6654 -54,-9720 749,-2857 2230,-5413 4493,-7248 1708,-2720 4360,-4774 8127,-5652 666,-155 1368,-273 2108,-352 80,-9 157,7 224,42 175,-120 353,-232 531,-336 1348,-781 2788,-1087 4172,-761 546,129 1080,355 1592,689 42,-62 103,-113 178,-144 1517,-622 2818,-755 3925,-482 723,179 1357,526 1909,1020 646,78 1264,186 1852,323 3766,878 6419,2932 8127,5652 2263,1835 3743,4390 4493,7248 804,3067 765,6482 -54,9720 -812,3213 -3349,8449 -6554,12834 -2291,3135 -4934,5847 -7556,7107 -1178,851 -2018,2358 -2622,4037 -621,1725 -992,3633 -1229,5215l-5 -1c24,57 35,121 30,187l-332 3916 -1 0c-15,178 -148,330 -332,361l-2319 390c-33,6 -66,9 -101,6l-1593 -101zm2646 -4829l198 3445 745 191 279 -3293 -1222 -343zm-602 3450l-200 -3495 -1995 384 434 3540 1762 -429zm-2277 -3908l2399 -462c67,-13 132,-8 193,11l1569 440c197,-1238 478,-2639 891,-3998 -96,34 -197,67 -304,96 -687,191 -1626,309 -2655,309 -1029,0 -1968,-118 -2655,-309 -117,-33 -229,-68 -333,-107 416,1366 697,2775 896,4019zm2092 -6407c1029,0 1968,118 2655,309 371,103 679,236 907,394 437,-1049 977,-2011 1648,-2776 -1755,-321 -3515,-461 -5274,-449 -1723,12 -3450,170 -5173,447 675,770 1217,1737 1656,2792 229,-164 545,-302 927,-408 687,-191 1626,-309 2655,-309zm2443 1078c-618,-172 -1481,-278 -2443,-278 -962,0 -1825,106 -2443,278 -471,131 -762,249 -762,324 0,75 291,193 762,324 618,172 1481,278 2443,278 962,0 1825,-106 2443,-278 471,-131 762,-249 762,-324 0,-75 -291,-193 -762,-324zm-8673 -4061c39,28 78,57 117,86 15,7 31,13 46,20 -114,-143 -228,-286 -342,-430 -4552,-5715 -9847,-12363 -11752,-20537 -255,-1095 -444,-2205 -562,-3314 -366,-3447 -37,-6869 1142,-9799 -1215,1484 -2066,3258 -2570,5179 -770,2936 -731,6213 57,9327 792,3131 3277,8251 6423,12556 2275,3112 4884,5785 7423,6938l18 -26zm6971 -330c57,-1821 328,-4836 652,-8440 1030,-11468 2600,-28947 -455,-32272 -741,-806 -1552,-1283 -2387,-1480 -1176,-278 -2417,-7 -3591,673 -1206,699 -2340,1827 -3266,3240 -1394,2129 -2306,4893 -2275,7807 56,5353 1039,10662 2541,15556 1770,5764 4259,10946 6804,14941 389,-17 779,-27 1169,-29 269,-2 538,0 808,5zm-2886 76c-2497,-3997 -4921,-9103 -6657,-14758 -1523,-4959 -2519,-10346 -2576,-15784 -32,-3080 931,-6002 2404,-8251 567,-866 1211,-1635 1905,-2277 -360,59 -711,128 -1053,208 -3963,924 -6612,3227 -8169,6239 -1572,3040 -2044,6806 -1639,10618 114,1072 298,2150 546,3217 1865,8000 7099,14572 11599,20221 238,298 473,594 706,887 2,3 4,5 6,8 972,-148 1949,-259 2928,-328zm7115 313c231,-291 465,-584 700,-880 4500,-5650 9734,-12222 11599,-20221 249,-1067 433,-2145 546,-3217 405,-3811 -67,-7578 -1639,-10618 -1557,-3012 -4206,-5315 -8169,-6239 -276,-64 -558,-122 -846,-173 573,797 1027,1798 1376,2961 756,2522 1022,5829 938,9462 -243,10580 -3461,23997 -6118,28701 537,59 1075,133 1612,223zm12497 -34033c1179,2930 1509,6352 1142,9799 -118,1109 -307,2219 -562,3314 -1905,8174 -7200,14822 -11752,20537 -115,144 -229,287 -342,430 2596,-1106 5275,-3831 7604,-7018 3146,-4305 5632,-9425 6423,-12556 787,-3114 827,-6391 57,-9327 -504,-1921 -1355,-3695 -2570,-5179z"/></g><text x="0" y="60015" fill="#000000" font-size="5px" font-weight="bold" font-family="'Helvetica Neue', Helvetica, Arial-Unicode, Arial, Sans-serif">Created by Olena Panasovska</text><text x="0" y="60020" fill="#000000" font-size="5px" font-weight="bold" font-family="'Helvetica Neue', Helvetica, Arial-Unicode, Arial, Sans-serif">from the Noun Project</text></svg>