<svg width="285" height="595" viewBox="0 0 285 595" fill="none" xmlns="http://www.w3.org/2000/svg">
<path d="M188.977 34.77L190.195 36.07L191.297 36.648L191.877 37.323L192.418 37.299L194.274 38.189L195.047 38.262L195.222 38.84L194.932 39.417L195.337 40.404L197.329 41.824L197.6 42.498L196.633 42.955L196.575 43.581L195.724 44.399L195.686 45.265L195.279 45.385L194.893 46.395L194.12 47.188L194.583 47.693L194.41 47.91L193.292 47.207L192.708 47.309L192.38 47.212L192.554 46.972L194.235 46.155V45.962L193.288 45.722L193.153 45.145L192.438 44.808L191.857 44.759L191.413 44.832L190.707 44.475L189.747 44.894L188.884 44.885L188.446 45.335L187.152 45.153L186.122 45.907L185.446 46.843L185.43 47.669L186.174 48.904L186.464 48.919L187.005 48.679L187.063 49.496L186.638 49.809L187.367 50.242L187.352 51.824L186.63 52.728L184.444 53.139L183.424 53.136L181.932 52.72L181.299 53.967L180.358 54.993L178.853 55.474L177.524 55.505L175.808 55.048L175.924 54.42L175.624 53.11L175.222 52.519L173.802 51.984L172.902 49.115L171.849 48.277L172.038 47.707L173.293 47.257L175.942 47.522L177.002 46.448L178.488 45.959L179.968 44.454L180.752 43.024L181.888 42.822L184.049 43.957L185.51 43.475L186.983 43.568L186.958 42.978L188.157 41.858L188.416 41.876L188.433 42.617L188.657 42.767L191.849 42.939L192.4 42.23L191.779 41.908L191.486 41.329L192.021 39.997L192.469 39.675V39.224L192.021 38.815L191.952 38.042L190.934 37.033L190.284 36.746L188.938 34.77H188.977Z" fill="white" stroke="black" stroke-width="0.5"/>
<path d="M170.833 36.962L171.574 36.663L172.4 35.814L171.893 35.087L172.918 32.439L173.017 31.255L175.027 29.687L176.925 25.916L176.959 23.143L176.391 21.89L176.686 21.316L177.37 21.563L178.701 20.197L180.376 19.397L182.887 19.684L184.356 20.469L185.245 20.421L185.284 20.783L186.057 21.508L187.661 21.556L187.681 21.894L187.256 22.135L187.217 22.352L185.554 24.138L185.206 24.862L185.264 25.489L184.858 25.706L184.705 26.332L185.169 27.997L185.42 28.527L185.884 29.347L186.155 29.515L186.445 31.637L187.624 33.541L188.939 34.77L190.285 36.747L190.935 37.034L191.953 38.044L192.022 38.817L192.47 39.225V39.676L192.022 39.998L191.487 41.33L191.78 41.91L192.401 42.232L191.849 42.94L188.658 42.768L188.434 42.618L188.417 41.877L188.158 41.859L186.959 42.978L186.984 43.569L185.51 43.475L184.049 43.957L181.888 42.823L180.752 43.025L179.968 44.455L178.488 45.96L176.731 44.645L174.8 40.532L173.074 41.844L171.792 42.179L171.009 42.087L170.675 42.44L170.626 43.495L168.191 42.96L168.778 42.448L168.905 41.694L169.968 41.323L170.631 40.533L171.413 38.126L170.833 36.962Z" fill="white" stroke="black" stroke-width="0.5"/>
<path d="M193.208 47.853L193.558 48.181L192.515 49.04L192.631 49.785L193.211 50.434L193.327 50.891L194.603 52.716L196.381 54.206L198.257 55.19L199.716 55.599L199.235 57.792L198.35 58.322L197.997 60.533L197.378 62.312L195.728 64.534L195.875 64.995L197.395 65.144L197.941 65.586L198.015 66.3L195.765 72.128L196.119 72.377L197.592 72.409L197.828 72.748L197.372 73.199L196.032 73.699L192.955 74.982L190.411 76.868L189.102 77.254L188.997 76.467L189.904 73.244L189.756 72.754L187.354 72.558L186.336 72.003L185.686 71.206L184.24 70.568L183.958 69.707L181.602 65.907L175.503 63.792L173.218 64.045L172.479 63.667L170.932 60.233L171.472 59.581L172.929 58.652L174.355 57.141L175.808 55.048L177.524 55.505L178.853 55.474L180.358 54.993L181.299 53.967L181.932 52.72L183.424 53.136L184.444 53.139L186.63 52.728L187.352 51.824L187.367 50.242L187.701 50.073L187.972 50.242L188.919 49.616L188.339 49.713L188.281 49.544L188.474 49.424L188.571 49.184L189.189 49.304L189.808 50.073L189.828 50.265L190.098 50.746L190.523 50.891L190.601 51.203L191.162 51.179L191.587 50.866L191.703 50.337L191.567 48.727L191.123 48.487L190.968 47.958L191.529 47.717L191.8 48.078L192.195 48.127L192.089 48.511L192.341 48.631L192.689 48.27V47.895L193.208 47.853Z" fill="white" stroke="black" stroke-width="0.5"/>
<path d="M142.051 43.896L143.609 41.819L144.684 41.172L146.135 41.252L146.632 42.125L148.494 40.015L150.504 39.624L151.578 38.634L152.274 38.637L153.165 39.042L154.215 38.876L154.864 38.492L155.423 37.929L156.267 35.73L157.399 34.531L157.598 33.195L158.173 32.648L159.854 33.79L163.174 33.741L165.132 34.072L166.557 34.606L167.063 34.988L168.394 37.484L169.046 37.536L170.833 36.962L171.413 38.126L170.631 40.533L169.968 41.323L168.905 41.694L168.778 42.448L168.191 42.96L170.626 43.495L170.675 42.44L171.009 42.087L171.792 42.179L173.074 41.844L174.8 40.532L176.73 44.644L178.488 45.959L177.002 46.448L175.942 47.522L173.293 47.257L172.038 47.707L171.849 48.277L172.902 49.115L173.802 51.984L175.222 52.519L175.624 53.11L175.924 54.42L175.808 55.048L174.355 57.141L172.929 58.652L171.472 59.581L170.932 60.233L170.276 59.507L168.766 58.722L167.911 58.898L167.294 59.474L166.768 60.494L165.418 64.613L164.906 65.32L164.291 66.089L163.452 66.473L162.151 66.434L161.481 64.879L159.935 62.964L158.948 60.877L157.582 59.674L156.476 57.619L155.959 55.478L156.119 52.953L155.204 53.177L154.5 53.829L153.42 53.772L149.304 50.688L147.231 50.261L145.879 49.552L145.07 48.236L144.705 47.032L143.865 47.405L143.553 47.231L143.674 45.929L142.051 43.896Z" fill="white" stroke="black" stroke-width="0.5"/>
<path d="M236.787 61.427L232.282 69.943L230.658 74.734L230.252 75.237L229.865 75.883L229.517 76.433L229.383 77.85L228.164 78.419L227.449 78.324L226.714 78.707L226.231 78.611L225.013 79.353L223.853 79.233L223.331 79.494L221.842 80.214L221.436 80.166L219.832 81.051L218.556 82.486L217.067 82.869L215.868 83.538L215.559 83.61L215.462 83.155L214.747 82.677L212.93 83.083L211.538 84.255L210.262 86.096L207.131 82.421L206.587 82.276L205.704 83.353L205.439 84.662L204.851 85.158L204.322 85.133L202.043 82.85L200.822 82.786L198.219 83.42L197.598 83.374L196.822 82.869L195.937 80.886L196.387 75.038L196.033 73.698L197.372 73.198L197.828 72.747L197.592 72.408L196.119 72.377L195.765 72.128L198.015 66.299L197.941 65.585L197.395 65.143L195.876 64.994L195.729 64.533L197.379 62.312L197.998 60.532L198.351 58.322L199.236 57.792L199.717 55.598L201.583 55.814L204.966 54.71L205.72 54.254L205.778 53.894H206.107L207.383 55.143L208.292 54.759L208.485 54.135L207.519 53.99L207.616 54.303L207.307 54.447L206.737 54.146L206.224 53.679L209.511 52.526L210.265 52.094L210.633 51.325L211.097 51.109L211.406 50.34L211.445 49.09L211.947 48.73L212.469 46.614L212.585 45.724L212.488 45.147L213.087 44.498L213.377 44.113L213.357 43.56L213.725 42.814L214.498 42.766L215.02 42.189L215.484 42.044L215.213 41.202L215.967 41.37L216.335 41.803L217.553 41.394L218.288 41.442L218.771 41.057L219.274 41.418L219.622 41.659L220.55 41.418L221.633 41.586L224.494 40.311L225.751 39.541L227.742 37.181L229.946 35.88L230.99 34.941L231.202 34.46L231.724 34.291L232.903 33.207L233.503 33.062L233.483 32.339L233.831 32.363L234.565 31.519L235.048 31.398L234.951 30.988L235.57 30.506H236.324L236.208 29.469L236.285 29.083L235.608 28.649L235.666 28.287L236.014 28.48L236.149 28.239L235.782 27.805L236.188 27.613L235.686 27.251L236.053 26.865L236.014 26.359L236.478 27.01L237.387 26.697L238.373 26.36L239.804 26.263L240.558 26.745L241.486 26.021L242.047 25.756L243.729 25.274L244.038 24.816L245.024 24.43L245.198 24.189L244.966 23.369L245.72 23.924L245.797 24.358L246.648 24.865L246.745 25.589L247.654 26.506V26.868L247.886 27.398L246.9 27.495L246.629 28.025L246.551 30.195L247.054 31.473L248 32.722L247.865 32.987L248.348 33.686L248.929 33.927L249.315 34.795L249.644 37.926L250.127 39.996L251.113 41.368L251.964 42.066L251.558 42.812L251.481 43.606L251.133 44.231L250.631 45.53L250.38 45.674L250.09 45.217L249.336 45.289L246.281 47.333L244.096 49.472L241.602 53.437L240.519 54.734L239.958 55.911L237.483 59.751L236.787 61.427Z" fill="white" stroke="black" stroke-width="0.5"/>
<path d="M170.932 60.233L172.479 63.667L173.218 64.045L175.503 63.792L181.602 65.907L183.958 69.707L184.24 70.568L185.686 71.206L186.336 72.003L187.354 72.558L189.756 72.754L189.904 73.244L188.997 76.467L189.102 77.254L190.411 76.868L192.955 74.982L196.032 73.699L196.386 75.039L195.936 80.887L196.821 82.87L197.597 83.375L197.189 84.589L197.22 85.688L198.132 87.299L198.415 90.651L198.062 91.1L196.887 91.333L196.578 91.737L196.784 92.136L198.048 92.524L198.372 93.753L197.785 94.619L197.008 95.219L194.527 95.644L192.06 95.076L190.739 95.371L190.241 96.089L190.656 98.293L189.52 102.204L189.081 102.549L187.688 102.831L186.768 103.485L185.959 103.353L184.538 103.785L181.622 103.538L181.256 104.505L181.8 105.165L181.773 106.112L181.106 108.12L179.337 109.444L178.283 109.62L177.609 109.376L176.43 107.955L175.758 108.394L175.659 109.032L176.353 110.428L175.814 111.442L175.88 112.994L175.052 114.795L174.205 115.117L172.532 114.339L171.603 112.77L169.533 111.88L168.626 112.04L167.965 111.798L165.683 112.17L164.655 111.653L164.006 110.937L163.191 109.365L160.386 108.445L158.342 109.498L157.412 110.666L153.927 109.582L153.682 109.497L153.954 108.5L155.988 104.01L156.331 102.715L156.178 101.814L155.543 101.29L152.441 100.347L151.204 97.906L149.303 96.929L147.577 97.596L147.141 94.651L145.654 94.216L144.389 92.353L145.106 92.045L146.754 92.298L148.836 91.803L150.498 90.172L152.486 88.788L153.646 86.513L154.362 83.96L154.832 79.762L154.43 77.697L153.066 75.774L153.354 74.98L156.438 73.488L157.05 72.66L157.714 70.64L158.546 69.302L161.404 66.727L162.151 66.434L163.452 66.473L164.291 66.089L164.906 65.32L165.418 64.613L166.768 60.494L167.294 59.474L167.911 58.898L168.766 58.722L170.276 59.507L170.932 60.233Z" fill="white" stroke="black" stroke-width="0.5"/>
<path d="M155.125 1.004L155.956 1.222L156.091 1.779L156.768 2.336L158.025 2.627L159.803 2.675L160.151 2.021L161.407 1.876L161.871 1.973L163.379 1.953L163.553 2.191L163.534 3.111L163.805 3.449L163.728 4.756L164.134 5.458L164.154 6.16L164.425 6.861L164.464 7.369L163.633 8.216H162.55V8.482L163.13 8.724L162.086 9.16L161.893 9.039V9.547L161.332 9.716L161.158 9.425L160.81 9.909L160.346 9.885L160.226 10.302L159.688 10.03L159.282 10.369L157.794 10.514L157.577 11.455L157.89 11.505L158.969 10.738L159.649 10.731L158.934 12.158L158.509 12.085L158.006 12.448L157.774 12.11L156.691 11.578L156.149 11.82L156.536 12.134L156.749 12.037L157.387 12.689L157.464 13.076L157.174 13.559L157.599 13.535L158.025 12.931L158.141 13.559L157.735 14.622V15.347L158.237 15.951L159.223 16.289L159.474 16.627L159.725 17.231L159.435 18.27L160.015 18.874L161.774 19.043L162.76 19.405L163.514 19.332L164.423 18.753L164.965 18.077L165.526 18.053L165.777 17.691L166.86 17.401L167.807 15.758L168.561 12.81L168.484 12.06L168.097 11.577L165.545 11.625L163.264 10.9L161.95 11.118L161.389 11.698L160.461 11.553L160.558 10.973L161.061 11.094L161.718 10.659L161.563 10.127L163.342 9.474L163.864 8.797L163.922 8.216L164.656 7.587L165.062 7.853L165.547 7.825L165.584 8.434L166.763 8.917L171.364 9.619L173.993 9.183L175.501 8.361L177.821 7.563L177.763 8.555L178.382 9.474L179.001 10.224L181.418 10.441L183.622 11.36L184.454 12.182L185.981 13.053L186.464 13.464L187.43 13.899L187.488 14.479L188.126 15.011H190.426L190.871 15.325L192.108 15.204L192.514 15.446L192.494 15.712L191.875 15.688L190.58 16.147L190.271 16.461L189.072 16.485L189.42 16.944H188.937L188.666 17.355L188.395 17.693L188.221 16.388L186.945 16.291L186.403 16.557L183.561 16.702L182.362 18.707L182.884 19.685L180.373 19.398L178.698 20.198L177.367 21.564L176.683 21.317L176.388 21.891L176.956 23.144L176.922 25.917L175.024 29.688L173.014 31.256L172.915 32.44L171.89 35.088L172.397 35.815L171.571 36.664L170.83 36.963L169.043 37.536L168.391 37.485L167.059 34.989L166.554 34.607L165.129 34.073L163.171 33.741L159.852 33.791L158.17 32.648L157.595 33.195L157.396 34.531L156.264 35.73L155.42 37.929L154.861 38.492L154.212 38.876L153.162 39.042L152.271 38.637L151.575 38.634L150.502 39.624L148.491 40.016L146.629 42.126L146.132 41.253L144.681 41.172L143.606 41.819L142.048 43.896L139.84 45.967L136.958 49.306L134.565 50.949L132.106 53.235L130.705 53.531L129.846 53.308L129.322 52.707L128.628 52.795L127.449 49.069L129.569 44.111L129.309 43.383L128.406 42.025L127.494 41.234L126.515 41.015L124.519 41.22L123.022 39.86L122.554 39.076L120.523 37.667L120.22 34.725L117.993 32.061L117.57 27.935L115.856 24.974L113.351 25.193L111.127 26.427L109.42 26.405L109.12 24.057L108.578 22.495L108.599 21.833L109.875 19.629L109.998 18.816L109.411 17.301H110.096L110.928 16.915L111.373 17.108L111.934 16.987L112.146 16.359L114.234 14.982L115.239 13.483L115.568 12.734L116.515 11.622L118.313 10.171L118.564 10.195L118.912 11.283L118.873 12.129L121.173 12.371L121.541 11.984L122.392 11.911L122.856 11.428H123.378L123.88 10.969H126.277L126.896 10.727L129.796 9.131L130.453 8.502L130.646 8.188L132.289 7.584L134.223 7.801L134.861 8.164L135.402 8.091L137.2 7.487L137.819 6.906L139.308 6.156L140.12 5.284L142.266 4.486L143.136 5.405L144.509 5.139L146.674 3.953L149.69 1.654L150.985 1.872L151.468 1.557L151.893 1.92L152.512 1.992L153.537 1.799L154.658 1H155.125V1.004Z" fill="white" stroke="black" stroke-width="0.5"/>
<path d="M109.415 17.305L110.002 18.82L109.879 19.632L108.603 21.836L108.583 22.498L109.124 24.06L109.424 26.407L111.13 26.429L113.354 25.195L115.859 24.976L117.574 27.937L117.997 32.063L120.224 34.727L120.526 37.669L122.558 39.078L123.026 39.862L124.522 41.222L126.519 41.018L127.498 41.237L128.41 42.027L129.313 43.385L129.572 44.113L127.453 49.07L128.632 52.796L129.326 52.708L129.85 53.309L130.708 53.532L132.109 53.236L134.569 50.95L136.962 49.307L139.844 45.967L142.051 43.896L143.674 45.929L143.553 47.231L143.865 47.405L144.705 47.032L145.07 48.236L145.879 49.552L147.231 50.261L149.304 50.688L153.42 53.772L154.5 53.829L155.204 53.177L156.119 52.953L155.959 55.478L156.476 57.619L157.582 59.674L158.948 60.877L159.935 62.964L161.481 64.879L162.151 66.434L161.404 66.727L158.546 69.302L157.714 70.64L157.05 72.66L156.438 73.488L153.354 74.98L153.066 75.774L154.43 77.697L153.999 78.466L152.749 78.68L149.802 78.326L149.133 79.378L149.153 79.987L148.111 80.332L147.385 79.78L145.002 79.939L143.425 79.639L142.04 77.849L139.949 76.221L138.042 76.969L136.95 76.707L134.682 76.66L131.329 77.081L128.792 77.993L128.035 78.84L127.811 79.827L127.781 81.136L128.042 82.038L127.904 82.873L127.163 83.675L124.513 84.829L122.97 83.671L122.252 82.676L119.507 81.96L116.193 81.704L114.049 83.177L111.618 84.003L110.894 83.722L109.865 82.72L109.144 82.707L108.975 82.19L109.208 81.025L108.862 80.453L107.673 79.632L107.183 78.29L106.558 77.828L104.318 77.717L103.374 76.579L104.404 76.524L106.897 75.827L106.994 72.268L107.248 71.457L108.688 69.116L108.854 65.134L108.413 64.206L105.92 61.131L105.081 59.226L105.006 58.184L105.299 57.043L106.445 54.524L104.691 50.772L102.979 49.931L98.287 49.595L98.057 49.122L98.646 45.178L100.07 44.395L101.415 43.272L102.542 41.436L102.882 39.498L99.25 37.294L98.558 35.635L98.576 34.871L99.775 32.895L99.856 31.396L98.833 30.401L96.682 29.079L100.065 25.802L100.646 24.427L102.173 22.496L102.192 22.183L101.728 22.207V21.989L102.231 21.917L103.023 21.193L103.545 21.072L104.184 20.01L104.725 19.962L105.247 18.972L106.02 18.875L106.813 18.15L107.76 17.933L108.475 17.426L109.415 17.305Z" fill="white" stroke="black" stroke-width="0.5"/>
<path d="M96.682 29.079L98.833 30.401L99.856 31.396L99.775 32.895L98.576 34.871L98.558 35.635L99.25 37.294L102.882 39.498L102.542 41.436L101.415 43.272L100.07 44.395L98.646 45.178L98.057 49.122L98.287 49.595L102.979 49.931L104.691 50.772L106.445 54.524L105.299 57.043L105.006 58.184L105.081 59.226L105.92 61.131L108.413 64.206L108.854 65.134L108.688 69.116L107.248 71.457L106.994 72.268L106.897 75.827L104.404 76.524L103.374 76.579L98.846 77.103L97.967 77.705L96.324 79.619L94.657 80.329L92.891 80.313L91.736 80.789L90.823 80.768L84.221 81.964L79.619 80.57L75.723 82.327L72.217 82.112L69.974 84.034L67.454 84.523L65.108 86.344L61.041 85.871L61.488 85.166L61.319 84.461L61.603 83.464L61.358 83.025L62.252 82.052L62.108 81.108L59.826 80.604L58.365 79.047L57.616 79.991L56.549 80.255L56.253 79.859L55.745 80.141L55.226 80.08L55.435 79.721L55.197 79.359L53.945 79.27L53.513 79.002L51.942 79.635L51.079 78.976L48.38 78.896L47.858 78.599L47.18 77.699L45.894 77.777L45.494 77.543L44.882 76.216L44.91 75.115L44.355 74.754L44.503 74.44L45.385 74.27L45.995 73.204L46.343 73.115L47.356 73.663L48.296 73.134L49.121 73.001L49.345 72.576L50.878 71.939L51.081 71.489L51.618 71.144L52.194 71.331L53.993 70.921L55.982 69.398L56.431 68.01L58.063 67.431L59.159 66.432L60.32 65.957L60.733 66.329L61.281 65.962L61.567 64.845L61.978 64.29L62.322 64.335L62.898 63.841L63.81 64.143L65.053 64.063L64.947 63.742L65.846 60.852L65.252 60.397L66.541 59.946L67.472 58.689L67.762 57.352L67.312 57.06L66.949 55.742L66.292 54.955L66.185 54.053L66.562 53.443L65.819 52.799L64.386 53.032L64.003 52.755L63.755 51.937L66.884 50.817L67.595 50.178L70.5 50.014L70.991 50.629L71.671 50.688L72.45 50.277L72.896 50.648L73.776 50.718L74.765 49.3L75.71 48.497L76.59 49.122L77.368 48.209L77.907 48.239L80.653 46.677L81.349 44.971L80.694 44.618L80.048 43.794L79.432 44.067L77.88 43.462L77.447 43.616L77.742 42.867L77.731 40.768L78.045 39.265L78.225 38.873L79.467 38.326L78.653 36.815L78.451 36.175L78.606 36.022L80.133 35.059L80.945 34.89L81.352 34.625L81.932 34.336L82.492 34.505L83.285 34.288L84.251 34.023L84.947 34.095L85.199 33.71L86.339 34.794L86.997 35.275L88.099 35.251L89.761 34.288L91.114 33.42L91.83 33.3L94.575 31.131L96.682 29.079Z" fill="white" stroke="black" stroke-width="0.5"/>
<path d="M97.967 77.705L99.272 80.871L101.009 82.821L101.981 85.83L101.699 86.594L99.876 88.554L99.89 89.46L102.898 95.074L105.514 96.214L106.098 97.002L105.893 98.015L106.231 99.105L106.17 99.921L105.165 101.457L106.275 105.195L108.067 105.436L109.029 107.133L110.581 106.964L110.963 108.082L113.48 108.914L113.216 112.177L113.801 116.499L112.977 117.301L111.785 117.889L109.748 119.828L109.438 120.677L109.64 122.594L109.316 124.507L108.229 125.256L107.15 125.413L106.294 125.891L105.214 127.024L104.701 128.881L105.682 129.021L105.473 129.734L104.521 130.583L105.078 133.744L104.864 135.061L103.535 137.024L105.095 139.893L105.224 142.778L104.464 142.663L103.012 141.796L101.921 141.323L96.74 140.225L93.834 139.161L90.812 137.276L88.9 135.569L87.972 135.047L86.792 135.226L85.053 135.964L82.272 134.71L80.654 134.886L79.405 136.852L77.915 137.556L76.523 138.803L76.747 139.873L76.579 141.013L76.961 142.741L76.779 143.955L74.478 146.345L73.631 146.281L72.609 146.942L70.76 144.829L69.608 144.081L66.571 144.595L63.627 144.681L61.538 146.54L60.266 148.433L58.823 148.506L58.912 147.603L58.449 145.14L57.196 144.256L56.035 144.207L55.5 143.552L55.219 143.63L54.842 142.75L53.36 140.946L52.317 140.334L52.447 139.591L52.131 139.038L51.904 137.537L52.394 135.887L52.613 133.143L52.879 132.681L52.485 128.303L53.158 126.568L51.959 126.598L52.716 125.539L51.681 125.113L52.18 124.225L52.244 122.548L53.141 121.602L53.423 121.68L54.07 121.303L54.615 116.156L54.291 114.324L54.486 113.608L55.16 112.77L55.531 111.17L56.195 109.824L57.648 108.622L57.238 106.983L57.374 106.219L57.188 105.433L55.458 103.673L55.215 102.407L56.841 100.769L57.407 98.834L57.891 98.397L57.883 98.004L58.387 97.342L58.359 95.631L58.012 94.927L57.222 94.576L58.431 92.715L59.322 91.987L60.324 91.839L60.406 91.363L60.91 91.221L60.14 90.49L59.77 89.325L60.117 88.237L59.873 86.987L61.041 85.871L65.108 86.344L67.454 84.523L69.974 84.034L72.217 82.112L75.723 82.327L79.619 80.57L84.221 81.964L90.823 80.768L91.736 80.789L92.891 80.313L94.657 80.329L96.324 79.619L97.967 77.705Z" fill="white" stroke="black" stroke-width="0.5"/>
<path d="M103.374 76.579L104.318 77.717L106.558 77.828L107.183 78.29L107.673 79.632L108.862 80.453L109.208 81.025L108.975 82.19L109.144 82.707L109.865 82.72L110.894 83.722L111.618 84.003L114.049 83.177L116.193 81.704L119.507 81.96L122.252 82.676L122.97 83.671L124.513 84.829L127.163 83.675L127.904 82.873L128.042 82.038L127.781 81.136L127.811 79.827L128.035 78.84L128.792 77.993L131.329 77.081L134.682 76.66L136.95 76.707L138.042 76.969L139.949 76.221L142.04 77.849L143.425 79.639L145.002 79.939L147.385 79.78L148.111 80.332L149.153 79.987L149.133 79.378L149.802 78.326L152.749 78.68L153.999 78.466L154.43 77.697L154.832 79.762L154.362 83.96L153.646 86.513L152.486 88.788L150.498 90.172L148.836 91.803L146.754 92.298L145.106 92.045L144.389 92.353L145.654 94.216L147.141 94.651L147.577 97.596L149.303 96.929L151.204 97.906L152.441 100.347L155.543 101.29L156.178 101.814L156.331 102.715L155.988 104.01L153.954 108.5L153.682 109.497L153.927 109.582L150.57 112.493L147.985 115.199L146.684 115.428L143.413 119.654L139.538 122.946L137.167 124.215L137.174 124.968L138.986 127.918L138.361 129.819L138.781 130.963L136.718 133.539L136.83 134.496L137.276 135.402L139.149 137.343L140.68 137.653L140.092 138.284L139.44 138.841L136.714 139.069L135.683 139.53L134.902 140.223L131.836 141.313L130.81 142.202L129.857 141.69L127.875 141.832L123.855 139.865L122.967 140.002L121.876 141.498L122.051 142.643L123.092 144.345L125.04 146.338L127.138 147.636L128.94 149.793L129.963 150.082L131.598 153.155L132.761 154.383L133.159 157.566L133.702 159.061L134.117 159.669L132.98 160.225L130.255 159.669L128.892 160.225L125.844 160.621L124.957 160.432L125.254 159.736L124.486 157.518L122.896 156.049L121.876 155.88L121.467 154.609L120.075 155.049L118.458 154.893L116.316 153.644L116.014 152.754L116.325 150.893L114.703 149.413L113.795 149.064L113.129 149.403L110.256 149.202L108.736 149.869L107.928 149.387L106.465 146.932L104.799 147.619L103.778 147.554L102.954 146.999L101.922 144.285L100.083 143.238L102.128 142.496L103.012 141.796L104.464 142.663L105.224 142.778L105.095 139.893L103.535 137.024L104.864 135.061L105.078 133.744L104.521 130.583L105.473 129.734L105.682 129.021L104.701 128.881L105.214 127.024L106.294 125.891L107.15 125.413L108.229 125.256L109.316 124.507L109.64 122.594L109.438 120.677L109.748 119.828L111.785 117.889L112.977 117.301L113.801 116.499L113.216 112.177L113.48 108.914L110.963 108.082L110.581 106.964L109.029 107.133L108.067 105.436L106.275 105.195L105.165 101.457L106.17 99.921L106.231 99.105L105.893 98.015L106.098 97.002L105.514 96.214L102.898 95.074L99.89 89.46L99.876 88.554L101.699 86.594L101.981 85.83L101.009 82.821L99.272 80.871L97.967 77.705L98.846 77.103L103.374 76.579Z" fill="white" stroke="black" stroke-width="0.5"/>
<path d="M186.768 103.485L185.918 104.524L185.912 107.783L185.095 109.449L185.083 110.19L188.102 110.467L188.703 110.904L190.03 115.135L190.106 117.028L188.709 120.501L187.762 122.049L186.586 125.34L185.452 127.214L185.06 128.34L183.314 130.544L183.126 131.388L185.633 134.677L186.354 136.837L188.254 138.422L189.708 142.797L191.098 145.285L191.743 147.486L192.911 148.622L192.883 149.359L194.005 151.63L190.995 152.35L188.016 154.456L188.382 155.599L190.207 158.357L190.325 158.972L189.76 159.713L187.771 161.278L187.47 163L185.091 164.613L184.805 166.261L184.938 166.904L184.159 168.821L183.945 170.072L184.239 171.388L186.044 173.082L185.518 176.534L185.385 180.843L185.996 181.598L187.927 182.806L188.321 183.373L187.904 184.783L187.778 186.526L188.226 188.372L187.826 188.223L186.857 188.878L185.105 188.957L183.616 189.808L181.943 191.876L178.338 195.196L175.664 199.282L173.856 199.068L172.797 198.528L172.632 194.306L171.848 190.749L171.76 187.589L171.267 187.406L170.012 188.389L168.883 188.683L166.572 189.828L161.558 186.975L160.009 187.072L158.211 186.851L156.816 186.301L155.296 186.574L153.787 186.203L150.643 184.352L150.923 183.131L150.377 182.214L148.506 180.14L146.86 177.618L145.663 176.701L144.761 176.424L143.739 177.379L141.965 178.495L139.999 174.631L136.584 172.744L135.691 172.027L135.115 171.099L134.945 170.031L137.086 167.701L137.902 166.541L137.896 165.939L137.37 164.113L137.095 161.269L134.272 159.72L133.702 159.061L133.159 157.566L132.761 154.383L131.598 153.155L129.963 150.082L128.94 149.793L127.138 147.636L125.04 146.338L123.092 144.345L122.051 142.643L121.876 141.498L122.967 140.002L123.855 139.865L127.875 141.832L129.857 141.69L130.81 142.202L131.836 141.313L134.902 140.223L135.683 139.53L136.714 139.069L139.44 138.841L140.092 138.284L140.68 137.653L139.149 137.343L137.276 135.402L136.83 134.496L136.718 133.539L138.781 130.963L138.361 129.819L138.986 127.918L137.174 124.968L137.167 124.215L139.538 122.946L143.413 119.654L146.684 115.428L147.985 115.199L150.57 112.493L153.927 109.582L157.412 110.666L158.342 109.498L160.386 108.445L163.191 109.365L164.006 110.937L164.655 111.653L165.683 112.17L167.965 111.798L168.626 112.04L169.533 111.88L171.603 112.77L172.532 114.339L174.205 115.117L175.052 114.795L175.88 112.994L175.814 111.442L176.353 110.428L175.659 109.032L175.758 108.394L176.43 107.955L177.609 109.376L178.283 109.62L179.337 109.444L181.106 108.12L181.773 106.112L181.8 105.165L181.256 104.505L181.622 103.538L184.538 103.785L185.959 103.353L186.768 103.485Z" fill="white" stroke="black" stroke-width="0.5"/>
<path d="M58.823 148.506L60.266 148.433L61.538 146.54L63.627 144.681L66.571 144.595L69.608 144.081L70.76 144.829L72.609 146.942L73.631 146.281L74.478 146.345L76.779 143.955L76.961 142.741L76.579 141.013L76.747 139.873L76.523 138.803L77.915 137.556L79.405 136.852L80.654 134.886L82.272 134.71L85.053 135.964L86.792 135.226L87.972 135.047L88.9 135.569L90.812 137.276L93.834 139.161L96.74 140.225L101.921 141.323L103.012 141.796L102.128 142.496L100.083 143.238L101.922 144.285L102.954 146.999L103.778 147.554L104.799 147.619L106.465 146.932L107.928 149.387L108.736 149.869L110.256 149.202L113.129 149.403L113.795 149.064L114.703 149.413L116.325 150.893L116.014 152.754L116.316 153.644L118.458 154.893L120.075 155.049L121.467 154.609L121.876 155.88L122.896 156.049L124.486 157.518L125.254 159.736L124.957 160.432L125.844 160.621L125.993 160.793L123.874 162.35L123.417 163.079L120.573 164.754L118.471 167.441L114.523 173.352L113.344 176.37L113.428 177.174L113.929 177.764L114.771 177.863L116.701 178.95L117.666 180.717L122.328 183.695L122.393 184.279L120.824 185.103L120.657 185.692L121.044 186.563L121.054 187.339L120.787 188.046L121.075 189.094L120.294 190.339L120.719 191.896L121.37 193.039L120.813 194.819L121.887 196.303L122.63 196.755L122.484 197.854L121.778 199.228L120.626 199.676L115.182 200.304L112.126 202.081L109.555 202.226L109 202.94L108.654 203.999L105.91 207.143L105.33 208.996L105.184 209.888L105.552 210.376L106.584 210.819L107.125 211.332L107.052 212.253L104.285 213.557L102.349 215.337L99.65 216.32L97.862 217.311L94.992 218.227L91.999 220.443L89.677 221.518L87.836 222.428L86.646 223.639L84.832 224.575L81.878 225.424L76.131 228.65L73.572 229.667L74.115 231.718L73.859 232.612L72.292 232.728L70.409 232.156L69.141 231.362L64.019 227.304L62.462 227.277L60.071 225.907L54.347 223.53L53.47 221.525L53.777 218.949L53.384 218.257L53.509 217.706L53.216 216.27L52.892 215.888L53.09 215.54L52.747 214.959L52.821 214.045L52.038 212.97L52.042 211.441L51.692 210.135L51.084 209.171L51.733 208.489L52.677 208.165L53.75 207.128L54.299 207.04L54.691 206.643L55.827 206.789L55.998 202.341L55.841 201.604L58.706 194.001L61.83 191.382L62.839 189.478L63.272 187.19L65.47 183.722L67.111 181.996L64.706 182.234L63.379 181.525L62.109 181.481L61.543 181.039L61.05 180.426L58.764 178.934L57.035 178.617L56.402 177.737L56.233 176.652L55.56 175.782L55.585 174.721L55.987 174.75L56.054 173.217L55.742 170.413L56.79 167.857L56.614 167.364L55.823 167.213L56.697 166.644L57.308 164.836L58.119 163.93L58.278 163.257L59.754 162.677L60.604 162.633L60.75 161.146L59.839 160.292L58.912 157.83L59.142 155.869L58.53 153.204L58.286 150.421L58.724 149.591L58.823 148.506Z" fill="white" stroke="black" stroke-width="0.5"/>
<path d="M133.702 159.061L134.272 159.72L137.095 161.269L137.37 164.113L137.896 165.939L137.902 166.541L137.086 167.701L134.945 170.031L135.115 171.099L135.691 172.027L136.584 172.744L139.999 174.631L141.965 178.495L143.739 177.379L144.761 176.424L145.663 176.701L146.86 177.618L148.506 180.14L150.377 182.214L150.923 183.131L150.643 184.352L153.787 186.203L155.296 186.574L156.816 186.301L158.211 186.851L160.009 187.072L161.558 186.975L166.572 189.828L168.883 188.683L170.012 188.389L171.267 187.406L171.76 187.589L171.848 190.749L172.632 194.306L172.797 198.528L173.856 199.068L175.664 199.282L175.579 199.557L176.305 200.235L176.67 201.12L175.46 205.341L174.73 206.883L174.735 207.905L173.945 208.834L173.417 210.184L171.565 212.251L170.648 213.693L170.753 214.493L169.634 215.558L166.172 223.139L161.04 231.656L161.24 232.739L162.526 234.57L163.154 235.941L165.152 235.824L166.545 235.296L167.523 235.354L169.979 234.578L171.105 235.173L172.306 236.565L177.41 239.418L177.146 241.499L175.649 244.35L171.79 245.49L169.534 247.886L167.764 247.317L166.876 247.838L164.306 252.488L162.654 254.644L160.165 255.653L158.083 255.454L155.394 256.497L154.581 257.089L154.085 257.88L154.966 260.575L155.821 261.907L155.383 262.769L154.252 262.889L151.844 261.765L151.659 261.15L148.464 259.756L143.626 260.84L143.036 260.387L142.787 259.725L143.528 257.756L144.168 253.932L145.083 251.872L144.587 251.054L142.511 250.075L140.525 249.662L138.133 248.733L136.715 246.337L135.343 245.046L132.099 243.143L128.961 242.755L127.237 242.862L126.858 242.347L126.919 241.416L126.523 240.741L125.682 240.104L124.667 239.37L123.887 239.153L122.611 239.413L121.929 238.903L121.453 237.634L121.746 234.547L120.781 232.124L122.997 229.62L122.998 228.543L122.458 227.899L121.921 228.783L120.738 229.797L119.873 229.714L119.467 229.49L118.201 227.333L116.589 227.47L115.586 226.749L114.359 226.616L113.487 226.039L111.835 226.395L110.218 226.155L107.693 224.858L106.05 225.828L101.415 227.116L99.64 225.95L97.743 225.355L96.372 224.296L93.683 223.824L91.055 222.666L89.677 221.518L91.999 220.443L94.992 218.227L97.862 217.311L99.65 216.32L102.349 215.337L104.285 213.557L107.052 212.253L107.125 211.332L106.584 210.819L105.552 210.376L105.184 209.888L105.33 208.996L105.91 207.143L108.654 203.999L109 202.94L109.555 202.226L112.126 202.081L115.182 200.304L120.626 199.676L121.778 199.228L122.484 197.854L122.63 196.755L121.887 196.303L120.813 194.819L121.37 193.039L120.719 191.896L120.294 190.339L121.075 189.094L120.787 188.046L121.054 187.339L121.044 186.563L120.657 185.692L120.824 185.103L122.393 184.279L122.328 183.695L117.666 180.717L116.701 178.95L114.771 177.863L113.929 177.764L113.428 177.174L113.344 176.37L114.523 173.352L118.471 167.441L120.573 164.754L123.417 163.079L123.874 162.35L125.993 160.793L125.844 160.621L128.892 160.225L130.255 159.669L132.98 160.225L134.117 159.669L133.702 159.061Z" fill="white" stroke="black" stroke-width="0.5"/>
<path d="M197.597 83.375L198.218 83.421L200.821 82.787L202.042 82.851L204.321 85.134L204.85 85.159L205.438 84.663L205.703 83.354L206.586 82.277L207.13 82.422L210.261 86.097L208.308 89.921L206.123 96.893L205.485 100.71L205.33 103.881L205.678 109.028L206.354 112.124L206.876 113.434L207.495 114.338L208.152 114.315L208.925 114.862L209.099 116.786L209.601 117.884L209.756 119.097L210.703 120.952L212.984 123.852L213.815 125.397L214.801 126.442L214.936 127.915L215.903 129.055L216.541 130.575L218.3 132.118L218.029 132.213L217.971 133.115L219.037 134.045L218.087 135.076L218.29 135.945L218.098 137.14L217.644 137.909L216.215 137.919L216.607 139.036L216.211 139.806L216.045 143.106L216.568 144.119L216.523 144.826L214.801 146.619L213.908 149.171L213.063 149.605L211.067 149.723L210.047 150.04L209.449 150.722L209.376 151.634L210.263 153.128L210.073 154.1L209.505 154.825L206.768 156.435L206.464 156.906L206.492 157.598L207.16 159.224L207.742 159.777L208.992 160.34L209.777 160.466L210.491 158.594L212.543 157.961L214.262 159.362L214.43 160.621L214.167 161.636L212.014 163.12L210.558 166.112L209.585 166.047L206.694 165.088L205.168 163.119L204.179 162.349L203.656 161.443L203.395 160.315L202.478 160.367L200.806 159.031L200.268 159.271L198.93 158.858L198.087 159.542L198.116 160.204L197.55 160.223L196.967 159.01L195.613 157.789L195.249 157.029L193.952 155.793L193.471 154.945L193.162 153.669L193.365 152.917L194.644 151.653L194.001 151.633L192.878 149.362L192.906 148.625L191.739 147.489L191.093 145.288L189.703 142.8L188.25 138.425L186.349 136.84L185.628 134.68L183.122 131.39L183.31 130.547L185.056 128.342L185.448 127.216L186.582 125.342L187.758 122.05L188.705 120.502L190.102 117.029L190.025 115.136L188.698 110.905L188.097 110.467L185.078 110.19L185.09 109.449L185.906 107.782L185.912 104.524L186.762 103.484L187.682 102.83L189.075 102.548L189.514 102.203L190.651 98.293L190.236 96.088L190.734 95.37L192.055 95.075L194.522 95.643L197.002 95.219L197.779 94.618L198.366 93.752L198.042 92.523L196.778 92.134L196.572 91.736L196.881 91.332L198.056 91.098L198.409 90.649L198.127 87.297L197.215 85.687L197.184 84.588L197.597 83.375Z" fill="white" stroke="black" stroke-width="0.5"/>
<path d="M219.059 134.042L220.2 135.205L220.664 135.56L221.495 135.869L223.429 137.198L224.395 137.388L225.342 137.293L226.889 136.628L227.333 136.059L228.242 136.178L228.996 135.68L230.716 136.059L230.967 135.276L231.199 136.177L231.006 136.486L231.605 136.842L231.644 137.174L231.373 138.147L230.657 138.313L230.367 139.072L230.116 139.879L230.077 140.496L230.367 141.136L229.806 141.491L230.637 142.937L232.686 144.312L233.749 144.43L234.561 145.188L236.707 145.615L238.718 146.397L239.588 146.231L239.762 146.705L241.308 146.894L241.559 147.534L242.294 147.842L242.777 148.387L244.246 148.458L245.773 149.192L246.005 149.476L245.695 149.713L245.676 150.897L244.767 153.268L241.169 153.816L241.672 154.868L241.44 154.774L241.13 155.058L240.995 155.768L240.589 155.673L239.545 156.123L239.043 156.004L238.598 156.406L238.424 155.815H238.076L237.709 155.2L237.459 155.189L236.307 155.884L232.339 158.59L229.726 161.247L229.705 162.818L229.225 163.216L227.393 163.432L225.04 162.901L224.025 161.909L223.171 160.474L222.912 159.477L222.2 159.35L219.989 159.657L217.532 159.175L214.264 159.363L212.545 157.962L210.493 158.595L209.779 160.467L208.994 160.341L207.744 159.778L207.162 159.225L206.494 157.599L206.466 156.907L206.77 156.436L209.507 154.826L210.075 154.101L210.265 153.129L209.378 151.635L209.451 150.723L210.049 150.041L211.069 149.724L213.065 149.606L213.91 149.172L214.803 146.62L216.525 144.827L216.57 144.12L216.047 143.107L216.213 139.807L216.609 139.037L216.217 137.92L217.646 137.91L218.1 137.141L218.292 135.946L218.089 135.077L219.039 134.046L219.059 134.042Z" fill="white" stroke="black" stroke-width="0.5"/>
<path d="M194.005 151.63L194.648 151.65L193.369 152.914L193.166 153.666L193.475 154.942L193.956 155.79L195.253 157.026L195.617 157.786L196.971 159.007L197.554 160.22L198.12 160.201L198.091 159.539L198.934 158.855L200.272 159.268L200.81 159.028L202.482 160.364L203.399 160.312L203.66 161.44L204.183 162.346L205.172 163.116L206.698 165.085L209.589 166.044L210.562 166.109L212.018 163.117L214.171 161.633L214.434 160.618L214.266 159.359L217.534 159.171L219.991 159.653L222.202 159.346L222.914 159.473L223.173 160.47L224.027 161.905L225.042 162.897L227.395 163.428L229.227 163.212L229.707 162.814L229.728 161.243L232.341 158.586L236.309 155.88L237.461 155.185L237.711 155.196L238.078 155.811H238.426L238.6 156.402L239.045 156L239.547 156.119L240.591 155.669L240.997 155.764L241.132 155.054L241.442 154.77L241.674 154.864L241.171 153.812L244.769 153.264L244.711 156.076L245.407 158.157L246.161 159.032L246.973 159.505L248.249 159.245L248.094 159.577L247.533 160.073L247.243 160.404L246.74 160.38L245.503 164.753L245.31 167.044L245.987 169.264L245.001 169.665L244.711 171.317L245.31 174.715L246.257 176.225L249.486 179.832L250.472 180.351L252.54 182.213L253.217 182.307L254.126 182.873L253.546 183.061L253.933 182.873L253.469 183.061L252.986 183.603L252.522 183.273L252 182.99L251.42 183.202L250.763 183.485L250.048 184.357V186.006L249.391 186.194L249.333 186.924L248.791 187.042L248.211 188.148L248.675 188.807H246.8L246.143 189.302L244.442 192.361L244.113 193.412L240.281 193.211L238.866 192.529L237.735 192.958L237.157 192.727L236.562 189.864L236.755 188.62L236.097 186.779L235.103 185.54L234.436 185.352L233.312 187.508L230.773 188.778L230.398 188.415L229.984 186.705L229.394 185.655L228.326 184.563L227.664 183.425L228.081 179.864L227.75 179.075L227.187 178.492L225.84 177.957L220.799 181.313L219.466 181.424L218.582 181.196L214.511 179.38L213.495 179.285L213.668 180.558L212.593 182.162L211.825 182.827L211.737 183.223L212.954 184.472L213.46 185.42L211.373 186.212L208.765 188.253L203.958 192.916L202.815 193.541L199.876 191.989L197.296 189.894L195.544 189.517L191.838 189.863L189.605 188.746L188.223 188.373L187.775 186.528L187.901 184.785L188.318 183.374L187.924 182.808L185.993 181.6L185.382 180.845L185.515 176.536L186.042 173.084L184.237 171.39L183.943 170.074L184.157 168.824L184.935 166.907L184.803 166.263L185.089 164.615L187.468 163.002L187.769 161.28L189.757 159.715L190.322 158.974L190.204 158.359L188.379 155.601L188.012 154.458L190.991 152.352L194.005 151.63Z" fill="white" stroke="black" stroke-width="0.5"/>
<path d="M248.638 229.929L248.966 230.444L250.551 230.467L251.054 230.912L250.976 231.287L249.913 231.497L248.908 232.386L248.289 232.55L246.645 234.304H246.005L245.756 234.678L244.461 233.766L242.934 233.275L241.156 231.872L240.267 231.497L240.286 231.263L240.596 231.427L240.963 231.146L241.524 230.304L242.278 229.976L242.858 230.233L245.081 229.999L245.951 230.42L246.415 230.045L247.942 230.209L248.638 229.929ZM260.141 216.882L260.412 217.07L260.895 217.328L261.301 218.5L261.881 218.992L262.152 218.711L261.553 218.148L261.708 217.656L263.293 218.242L264.647 219.203L264.454 219.508L263.391 218.781L262.443 219.133L262.946 219.719L262.424 220L262.636 220.656L263.081 221.078L263.332 221.406L263.506 222.109L263.641 222.296L263.042 222.015L262.771 221.406H262.094L261.823 220.867L261.417 221.125L261.823 221.453L261.765 222.249L262.945 223.069L263.621 224.029L263.718 224.732L263.157 225.247L262.983 225.083L262.094 225.037L260.953 225.997L260.025 225.973L260.102 226.582L259.677 226.91L258.304 227.05L257.26 227.355L256.564 227.542L255.732 228.034L255.191 228.455L251.408 230.778L251.228 229.695L251.015 229.438L251.808 228.946L251.962 228.314L251.769 227.729L252.775 227.401L253.471 225.833L254.65 225.318L254.225 224.943L254.032 224.241L254.689 224.451L255.037 224.287L254.322 222.483L255.057 222.577L254.96 223.093L255.308 223.608L256.391 224.311L257.454 224.17L258.324 224.451L258.053 223.655L258.401 223.468L258.246 222.531L258.671 222.179L257.782 221.429L257.531 220.632L258.401 220.796L258.904 220.468L258.73 220.093L259.755 220.047L259.272 218.711L259.388 218.5L259.622 218.804L259.949 218.711L259.91 218.219L259.504 217.914L259.484 217.375L259.89 217.117L260.141 216.882ZM188.226 188.372L189.608 188.745L191.841 189.862L195.547 189.516L197.299 189.893L199.879 191.988L202.818 193.54L203.961 192.915L208.768 188.252L211.376 186.211L213.463 185.419L212.957 184.471L211.74 183.222L211.828 182.826L212.596 182.161L213.671 180.557L213.498 179.284L214.514 179.379L218.585 181.195L219.469 181.423L220.802 181.312L225.843 177.956L227.19 178.491L227.753 179.074L228.084 179.863L227.667 183.424L228.329 184.562L229.397 185.654L229.987 186.704L230.401 188.414L230.776 188.777L233.315 187.507L234.439 185.351L235.106 185.539L236.1 186.778L236.758 188.619L236.565 189.863L237.16 192.726L237.738 192.957L238.869 192.528L240.284 193.21L244.116 193.411L243.981 194.642L244.425 195.841L243.961 197.534L244.193 198.733L243.826 198.921L242.975 200.519V201.201L242.124 201.553L241.332 202.282L240.655 202.305L239.611 202.963L237.349 205.265L237.175 205.852L237 206.981V209.586L237.251 210.619L237.096 211.98L236.207 213.293L234.68 215.052L234.39 216.319L233.481 217.444L233.152 217.28L233.172 218.195L233.713 219.038L233.597 219.436L231.876 219.811L230.445 220.608L229.633 221.873L228.898 221.92L228.627 222.459L227.254 223.162L226.983 223.725L226.577 223.912L226.384 224.755L227.042 225.27L226.887 225.855L226.616 225.996L226.423 226.605L225.843 226.839L225.572 226.16L225.282 226.371L225.205 225.552L224.915 225.645L224.238 227.003L224.374 227.424L225.166 227.752V228.267L224.895 228.454L224.702 227.822H224.141L224.373 230.163L223.213 231.824L222.227 231.122L221.782 231.192L221.26 231.426L221.395 231.894L221.105 232.198L220.583 232.432L220.1 232.315L219.114 233.227L218.418 233.11L217.741 233.625L217.49 234.046L217.568 234.607L216.795 235.028L216.698 235.636L215.925 236.876L215.036 237.343L214.63 238.909L214.669 240.428L214.127 241.409L211.13 242.717L211.072 242.46L209.641 242.904L209.544 242.553L209.273 242.507L208.944 242.811H207.726L207.359 243.185L206.972 243.442L205.58 243.582L204.884 244.002L203.724 244.936L202.796 245.94L202.525 246.617L201.403 247.714L198.851 251.354L198.117 251.471L197.866 251.308L197.846 250.888L196.957 250.608L196.725 251.004L196.474 251.401L196.513 251.961L197.422 251.448L197.248 252.755L195.257 253.641L194.542 253.477L194.329 253.127L193.227 252.637L193.034 253.01L192.763 253.033L192.473 253.313L192.551 253.663L192.86 253.64L192.648 254.596L192.455 254.13H192.223L191.932 255.063L191.449 255.623L189.477 255.926L188.704 256.812L187.795 257.301L186.712 256.648L186.422 256.392L186.093 256.462L185.668 257.907L185.281 258.676L184.527 258.932L183.908 258.909L183.85 260.726L183.715 260.796L182.671 259.491L181.337 259.98L179.674 262.077L179.055 263.009L177.431 267.154L176.194 269.178L175.962 269.341L175.846 270.946L175.421 272.086L175.208 272.412L174.465 272.203L174.468 271.527L172.027 270.161L171.851 269.338L171.232 268.74L170.372 268.506L169.901 268.904L170.51 270.298L169.857 271.291L169.258 271.762L167.685 272.001L166.696 271.697L165.719 271.074L164.953 269.9L164.292 269.504L163.757 268.659L163.42 267.42L162.871 266.72L160.471 265.598L159.571 265.944L158.731 266.725L157.716 266.929L156.037 266.536L152.744 264.332L151.844 261.765L154.253 262.89L155.384 262.77L155.822 261.908L154.967 260.575L154.086 257.88L154.582 257.089L155.395 256.496L158.084 255.454L160.166 255.653L162.655 254.644L164.306 252.488L166.877 247.838L167.765 247.317L169.535 247.886L171.791 245.49L175.65 244.349L177.147 241.498L177.411 239.417L172.307 236.564L171.106 235.171L169.981 234.576L167.525 235.352L166.546 235.293L165.153 235.821L163.154 235.938L162.527 234.567L161.24 232.736L161.04 231.653L166.172 223.136L169.634 215.555L170.754 214.491L170.649 213.691L171.566 212.25L173.418 210.183L173.946 208.833L174.736 207.904L174.731 206.882L175.461 205.34L176.67 201.119L176.305 200.234L175.578 199.556L175.663 199.281L178.337 195.196L181.942 191.876L183.614 189.808L185.103 188.956L186.855 188.877L187.824 188.222L188.226 188.372Z" fill="white" stroke="black" stroke-width="0.5"/>
<path d="M89.677 221.518L91.055 222.666L93.683 223.824L96.372 224.296L97.743 225.355L99.64 225.95L101.415 227.116L106.05 225.828L107.693 224.858L110.218 226.155L111.835 226.395L113.487 226.039L114.359 226.616L115.586 226.749L116.589 227.47L118.201 227.333L119.467 229.49L119.873 229.714L120.738 229.797L121.921 228.783L122.458 227.899L122.998 228.543L122.997 229.62L120.781 232.124L121.746 234.547L121.453 237.634L121.929 238.903L122.611 239.413L123.887 239.153L124.667 239.37L125.682 240.104L126.523 240.741L126.919 241.416L126.858 242.347L127.237 242.862L128.961 242.755L132.099 243.143L135.323 245.027L136.715 246.337L138.133 248.733L140.525 249.662L142.511 250.075L144.587 251.054L145.083 251.872L144.168 253.932L143.528 257.756L142.787 259.725L143.036 260.387L143.626 260.84L142.409 263.815L140.987 265.072L135.994 267.119L133.804 267.319L127.79 266.163L125.758 266.421L122.921 267.565L121.083 268.885L120.152 269.432L118.839 269.779L114.104 270.112L112.297 270.991L109.763 269.934L106.144 271.203L104.993 271.823L103.871 273.353L104.902 275.396L104.958 276.277L104.514 277.227L103.498 278.146L101.569 278.308L98.113 277.711L95.856 276.119L94.887 276.331L93.942 277.163L92.22 277.669L87.692 277.234L82.782 277.825L81.4 278.151L79.557 279.023L79.418 279.532L75.378 278.154L71.531 278.16L68.921 278.536L62.656 278.515L60.153 279.209L57.811 279.323L57.695 278.618L58.433 276.992L58.483 275.964L56.84 274.755L56.573 273.606L56.07 272.87L49.757 270.271L46.771 269.958L45.701 268.864L44.275 266.058L42.093 264.057L38.407 261.54L36.734 259.958L37.189 258.609L39.703 255.135L40.102 253.846L43.773 253.061L44.946 252.283L44.61 251.424L41.378 249.525L41.272 248.702L41.635 246.991L43.051 244.913L43.566 243.546L42.742 242.302L43.015 242.371L43.235 241.966L44.194 241.831L44.082 241.436L44.425 240.737L44.742 240.704L44.844 240.313L45.352 240.284L44.986 239.079L45.737 239.209L45.675 238.347L46.795 238.64L47.96 238.423L48.171 238.139L49.276 238.158L49.278 237.917L48.039 237.18L48.466 236.997L48.654 235.878L49.837 235.468L49.741 235.091L50.044 234.956L51.284 235.058L50.805 234.363L50.706 233.61L52.414 232.472L52.941 232.443L53.43 231.637L53.338 231.16L52.884 231.01L51.902 231.193L50.747 230.421L50.396 229.629L50.755 228.712L52.45 228.394L54.19 225.815L54.418 225.061L54.717 224.936L55.542 225.255L56.119 224.999L56.067 224.733L55.22 224.53L54.347 223.53L60.071 225.907L62.462 227.277L64.019 227.304L69.141 231.362L70.409 232.156L72.292 232.728L73.859 232.612L74.115 231.718L73.572 229.667L76.131 228.65L81.878 225.424L84.832 224.575L86.646 223.639L87.836 222.428L89.677 221.518Z" fill="white" stroke="black" stroke-width="0.5"/>
<path d="M42.742 242.302L43.566 243.546L43.051 244.913L41.635 246.991L41.272 248.702L41.378 249.525L44.61 251.424L44.946 252.283L43.773 253.061L40.102 253.846L39.703 255.135L37.189 258.609L36.734 259.958L38.407 261.54L42.093 264.057L44.275 266.058L45.701 268.864L46.771 269.958L49.757 270.271L56.07 272.87L56.573 273.606L56.84 274.755L58.483 275.964L58.433 276.992L57.695 278.618L57.811 279.323L60.153 279.209L62.656 278.515L68.921 278.536L71.531 278.16L75.378 278.154L79.418 279.532L78.814 282.25L77.554 285.217L75.802 287.011L72.859 291.536L71.757 292.851L61.431 300.858L55.949 305.831L55.13 306.186L50.252 310.452L40.146 317.832L35.695 321.986L27.363 328.698L23.082 331.743L19.146 333.228L16.544 333.931L15.709 332.918L7.744 319.997L5.914 315.072L6.35 311.734L5.523 306.491L3.852 304.298L1.113 302.836L2.78 299.65L1.936 296.291L1.006 293.757L2.615 291.221L2.204 288.041L3.319 284.618L1.495 282.593L1 280.982L1.489 280.342L3.001 280.017L3.343 279.537L4.529 279.312L5.216 278.53L5.011 278.375L4.595 278.645L4.435 278.27L4.994 277.755L5.839 277.623L6.046 277.273L6.832 277.028L7.2 274.838L10.127 270.033L15.475 272.507L20.89 268.665L20.702 266.17L23.711 256.584L23.575 255.594L23.78 254.483L23.626 253.679L23.802 252.443L25.346 252.404L26.134 251.668L28.021 251.712L28.941 251.298L29.268 250.335L29.782 249.709L30.434 249.627L30.505 249.094L31.872 249.045L33.641 248.27L34.512 248.188L35.139 246.903L36.768 245.223L38.808 244.943L38.783 244.409L39.373 243.96L39.611 243.325L40.789 243.666L41.149 243.483L41.782 243.619L42.188 242.684L42.742 242.302Z" fill="white" stroke="black" stroke-width="0.5"/>
<path d="M121.083 268.885L121.993 270.103L126.264 274.165L127.124 275.579L125.35 277.985L122.259 280.244L121.035 281.845L120.876 282.874L121.154 284.528L120.487 291.786L120.95 295.799L123.603 300.484L124.654 301.398L125.954 304.008L126.772 305.776L126.909 307.73L127.574 309.876L127.979 310.428L129.35 310.817L130.199 311.592L130.806 311.207L132.901 311.41L134.729 313.359L134.998 315.899L135.958 316.526L139.083 316.167L139.743 316.7L141.017 319.062L143.545 320.28L142.051 321.644L140.815 323.188L140.901 326.216L140.622 326.751L139.705 327.328L139.243 328.012L141.139 330.228L141.574 331.282L146.159 334.47L147.398 338.26L149.048 340.452L150.129 342.61L152.36 344.677L156.141 348.507L157.778 349.754L158.671 349.897L159.685 351.097L161.8 351.894L164.205 351.656L166.23 351.912L167.424 352.781L167.354 362.19L166.694 362.922L166.018 363.246L165.493 365.238L166.444 365.995L167.233 367.839L169.143 368.425L171.962 370.124L172.716 371.197L172.465 371.7L168.853 371.923L168.376 372.528L168.436 375.436L168.78 376.357L168.949 378.735L169.234 379.344L170.903 380.246L171.188 380.797L170.548 382.174L168.932 382.994L167.982 384.446L167.068 384.844L166.622 385.448L167.225 387.403L167.202 388.229L166.27 390.093L165.106 390.893L165.464 391.811L167.077 393.152L169.599 395.859L170.166 396.661L169.917 397.489L169.075 397.644L167.594 396.997L165.199 396.535L164.236 395.612L163.18 393.325L161.372 392.372L159.27 391.693L157.672 390.767L155.971 387.478L155.851 386.527L155.308 385.512L154.445 385.07L151.591 385.844L149.475 385.539L147.779 386.536L144.194 387.41L138.974 390.779L123.521 394.924L116.922 397.21L99.5789 397.492L58.3959 408.419L56.2069 384.158L50.9579 375.833L45.5139 369.182L41.8389 365.475L41.9159 361.343L27.1889 354.338L22.0709 354.038L18.9269 345.842L16.5439 333.931L19.1459 333.228L23.0819 331.743L27.3629 328.698L35.6949 321.986L40.1459 317.832L50.2519 310.452L55.1299 306.186L55.9489 305.831L61.4309 300.858L71.757 292.851L72.8589 291.536L75.8019 287.011L77.5539 285.217L78.8139 282.25L79.4179 279.532L79.5569 279.023L81.3999 278.151L82.7819 277.825L87.6919 277.234L92.2199 277.669L93.9419 277.163L94.8869 276.331L95.8559 276.119L98.1129 277.711L101.569 278.308L103.498 278.146L104.514 277.227L104.958 276.277L104.902 275.396L103.871 273.353L104.993 271.823L106.144 271.203L109.763 269.934L112.297 270.991L114.104 270.112L118.839 269.779L120.152 269.432L121.083 268.885Z" fill="white" stroke="black" stroke-width="0.5"/>
<path d="M143.626 260.84L148.464 259.756L151.659 261.15L151.844 261.765L152.744 264.332L156.042 266.536L157.721 266.929L158.736 266.726L159.576 265.944L160.476 265.598L162.875 266.72L163.424 267.42L163.761 268.659L164.296 269.504L164.958 269.9L165.723 271.074L166.7 271.697L167.689 272L169.263 271.761L169.861 271.29L170.514 270.297L169.905 268.903L170.376 268.505L171.236 268.74L171.855 269.338L172.031 270.161L174.472 271.526L174.469 272.203L174.168 272.063L174.013 272.412L174.632 273.086L174.748 273.993L174.478 276.132L174.709 276.528L174.574 277.016L174.864 277.713L174.651 279.27L175 280.199L175.328 283.242L176.353 286.887L178.808 292.178L179.542 292.873L179.697 293.175L179.794 293.777L180.625 295.331L181.457 296.397L185.749 301.24L190.292 304.645L191.916 306.103L192.998 307.653L196.014 310.8L199.881 313.274L200.402 313.529L200.79 313.414L201.35 313.714L202.007 313.783L202.201 314.153L203.36 314.385L204.018 314.338L204.653 314.657L203.545 315.533L201.91 316.326L201.215 317.295L200.534 318.738L198.902 320.924L197.656 323.104L197.374 324.456L194.626 328.632L192.956 330.414L192.251 332.501L190.991 333.604L186.705 333.325L183.122 335.176L183.069 336.051L182.393 337.248L181.289 337.821L180.226 338.006L179.505 338.588L179.6 340.722L177.156 342.472L175.981 342.975L174.155 343.243L173.38 344.112L172.387 343.883L171.562 343.336L170.882 343.303L169.303 344.742L168.157 345.074L166.797 345.052L165.874 344.692L163.143 345.191L162.46 344.816L160.408 345.048L158.43 345.853L157.283 345.971L155.751 345.752L153.236 344.706L152.36 344.677L150.129 342.61L149.048 340.452L147.398 338.26L146.159 334.47L141.574 331.282L141.139 330.228L139.243 328.012L139.705 327.328L140.622 326.751L140.901 326.216L140.815 323.188L142.051 321.644L143.545 320.28L141.017 319.062L139.743 316.7L139.083 316.167L135.958 316.526L134.998 315.899L134.729 313.359L132.901 311.41L130.806 311.207L130.199 311.592L129.35 310.817L127.979 310.428L127.574 309.876L126.909 307.73L126.772 305.776L125.954 304.008L124.654 301.398L123.603 300.484L120.95 295.799L120.487 291.786L121.154 284.528L120.876 282.874L121.035 281.845L122.259 280.244L125.35 277.985L127.124 275.579L126.264 274.165L121.993 270.103L121.083 268.885L122.921 267.565L125.758 266.421L127.79 266.163L133.804 267.319L135.994 267.119L140.987 265.072L142.409 263.815L143.626 260.84Z" fill="white" stroke="black" stroke-width="0.5"/>
<path d="M236.805 313.104L238.875 317.274L240.131 317.621L240.537 317.99L241.31 317.968L242.18 317.483L242.161 316.881L241.736 317.043L241.678 316.604L242.915 316.697L243.147 316.997L243.553 317.367L244.926 317.876L245.835 317.668L246.686 318.823L247.053 319.516L248.542 321.064L250.011 323.304L250.572 325.012L250.514 326.259L250.804 327.251L250.669 328.174L251.133 328.936L250.456 328.797L250.321 329.005L250.92 329.813L249.973 330.389L249.045 332.626L249.006 333.918L249.915 335.416L249.837 336.223L250.301 335.809L252.156 337.468L250.436 339.38L249.663 339.495L249.257 339.357L249.393 340.025L250.127 340.14L250.726 339.91L251.326 339.103L251.925 338.85L252.988 339.495L254.225 340.831L254.612 341.361L254.747 342.351L259.213 344.17L261.05 345.459L264 346.821L264.858 346.609L264.356 347.116L264.027 347.139L262.152 346.195L253.549 343.156H252.64L252.215 343.617L251.5 343.478L251.191 344.054L251.094 345.136L250.862 345.343L250.437 345.182L250.824 346.586L251.249 346.448L251.21 346.056L252.254 347.736L253.22 348.174L253.82 348.795L253.762 349.302L254.226 350.015L254.149 351.257L254.883 352.613L255.792 352.866L256.294 352.66L257.299 352.246L259.02 352.728L260.954 352.499L265.091 353.925L267.875 354.591L268.165 355.029L268.667 355.189L268.822 355.396L269.479 354.545V354.316L269.75 353.902L270.407 354.224L271.258 355.12L272.36 354.935L272.959 354.498L272.92 354.889L272.767 355.189L273.519 355.878L274.08 356.084L274.912 355.602L274.757 355.373L275.105 355.35L275.26 355.902L275.666 355.948L276.401 356.224L276.381 355.832L275.917 355.672L275.994 355.304L275.569 355.603L275.647 354.982L274.68 354.569L274.255 354.982L273.907 354.914L273.927 353.81L273.482 353.603L273.559 354.247L273.347 354.27L273.25 353.374L272.032 352.546L271.529 352.477L266.966 348.567L264.762 347.554L264.684 347.047L265.071 346.748L265 347.332L265.284 347.485L267.275 348.498L271.006 351.512L275.588 354.202L278.971 355.558L280.382 355.903L281.116 355.696L281.784 355.881L280.842 360.089L279.529 362.443L279.311 363.407L278.78 369.024L279.268 369.408L279.371 370.412L278.471 371.463L276.549 378.401L277.831 382.493L277.007 385.622L276.522 388.863L277.201 392.736L276.518 396.953L276.932 398.974L277.888 401.413L280.224 403.245L281.802 405.408L282.66 406.114L284.136 408.801L279.199 418.714L274.75 422.163L273.807 422.548L272.078 422.719L269.81 424.351L267.999 425.311L256.709 429.05L252.67 430.958L253.935 427.695L258.697 418.269L270.571 411.148L269.855 409.377L266.481 410.105L246.929 394.56L247.09 393.208L247.997 391.74L247.943 388.427L248.246 387.018L247.808 384.487L248.051 380.829L249.176 378.547L250.352 377.446L250.822 376.432L250.324 375.552L247.274 372.412L245.979 371.805L244.236 370.315L242.625 367.585L241.891 364.136L222.821 355.05L219.881 353.844L219.456 354.475L214.647 351.54L216.006 350.8L216.431 350.281L217.097 348.517L217.876 347.91L217.707 347.039L215.894 348.026L213.727 348.644L212.85 348.408L211.915 347.702L209.437 346.822H207.865L206.69 347.377L200.734 351.124L197.493 351.7L195.302 352.468L193.094 352.549L192.133 353.16L190.695 355.264L189.369 356.465L187.801 357.012L184.941 356.375L183.723 355.804L181.135 356.095L180.26 356.521L179.487 357.516L178.897 358.61L178.775 359.74L178.212 360.476L176.59 361.126L170.589 362.409L167.351 362.19L167.421 352.781L166.227 351.912L164.201 351.656L161.796 351.893L159.681 351.096L158.667 349.897L157.774 349.753L156.136 348.506L152.355 344.676L153.231 344.705L155.747 345.751L157.279 345.97L158.425 345.852L160.403 345.047L162.456 344.816L163.138 345.191L165.869 344.692L166.792 345.051L168.152 345.073L169.298 344.741L170.877 343.302L171.557 343.335L172.382 343.882L173.375 344.111L174.15 343.242L175.976 342.973L177.15 342.47L179.594 340.72L179.499 338.586L180.22 338.004L181.283 337.819L182.387 337.246L183.063 336.049L183.116 335.174L186.699 333.323L190.985 333.602L192.245 332.498L192.949 330.411L194.62 328.629L197.368 324.453L197.65 323.101L198.897 320.92L200.529 318.734L201.21 317.291L201.905 316.322L203.54 315.529L204.648 314.653L206.371 315.375L206.313 315.906L206.333 316.831L206.623 317.34L206.7 316.855L206.874 316.647L206.913 316.069L207.512 316.184L208.536 315.815L209.29 315.445L211.262 315.214L214.549 314.844L215.322 314.058L217.893 313.527L220.174 311.654L220.947 311.468L221.566 310.983L222.978 310.844L223.867 311.353L224.718 313.319L224.216 315.399L223.713 316.209L224.081 319.514L223.366 320.299L223.076 321.87L222.534 321.847L220.659 323.487L220.253 325.311L221.104 325.634L221.8 326.396L221.839 327.157L221.375 328.15L221.472 328.772L223.579 328.934L224.43 329.718L224.508 330.065L225.668 330.295L227.292 330.249L227.621 329.626L228.607 329.487L229.09 328.564L230.385 328.472L231.565 328.056L232.126 327.318L236.553 326.187L237.017 326.048L237.462 326.163L237.674 326.024L237.635 325.748L237.306 325.817L237.325 325.54L238.62 323.739L238.949 322.607L238.369 321.499L237.461 319.905L236.436 319.535L236.358 319.235L236.436 318.773L236.978 318.264L238.099 317.779L238.486 317.872L238.757 317.549L236.592 313.179L236.031 313.573L235.47 313.527L234.89 314.406L234.677 317.156L233.73 316.671L233.382 315.215L234.117 313.412L234.001 312.348L230.56 308.323L229.536 308.509L227.854 309.712L227.641 310.984L225.862 311.539L225.263 310.29L224.663 309.805L224.18 309.111L224.16 308.347L223.619 307.306L223.483 306.217L223.793 305.315L224.141 304.852L225.031 303.208L225.051 299.872L224.568 298.505L224.858 297.717L224.491 296.652L224.82 295.724L229.112 294.797L230.291 295.052L232.398 296.002L233.79 296.697L234.37 296.511L235.066 296.951L236.419 297.044L237.714 296.928L237.985 296.673L238.005 296.094L237.483 295.329L237.87 295.213L239.591 297.022L241.505 298.25L241.853 298.945L243.052 300.15L244.309 300.775L245.295 300.428L246.358 301.122L246.378 302.743L246.726 303.832L246.397 304.018L246.726 304.665L246.436 305.082L245.682 304.943L244.58 305.73L243.42 307.073L243.323 306.703L242.548 307.091L241.467 309.132L241.293 311.954L240.79 312.741L240.5 312.833L240.075 312.024L240.423 310.774L240.23 309.224L239.379 309.386L238.934 310.033L238.316 312.069L237.813 312.138L236.805 313.104Z" fill="white" stroke="black" stroke-width="0.5"/>
<path d="M167.354 362.19L170.592 362.409L176.593 361.126L178.215 360.476L178.777 359.739L178.899 358.609L179.489 357.516L180.262 356.52L181.137 356.095L183.725 355.804L184.943 356.375L187.803 357.012L189.371 356.465L190.697 355.264L192.134 353.16L193.095 352.549L195.303 352.468L197.494 351.7L200.735 351.124L206.691 347.377L207.866 346.822H209.438L211.916 347.702L212.851 348.408L213.728 348.645L215.895 348.026L217.708 347.039L217.876 347.91L217.097 348.518L216.431 350.281L216.006 350.8L214.646 351.54L219.455 354.475L219.88 353.844L222.821 355.05L241.891 364.136L242.625 367.585L244.236 370.315L245.979 371.806L247.275 372.413L250.325 375.553L250.823 376.433L250.353 377.446L249.176 378.547L248.052 380.829L247.809 384.487L248.247 387.019L247.944 388.428L247.999 391.74L247.091 393.208L246.93 394.56L266.482 410.104L269.856 409.377L270.572 411.148L258.698 418.27L253.936 427.695L252.671 430.958L252.155 431.363L249.542 432.267L248.678 432.935L247.682 433.006L244.896 435.163L241.253 436.421L232.613 442.665L232.069 444.921L228.211 451.686L226.341 452.052L223.769 453.373L222.873 453.471L219.579 452.702L217.607 453.909L217.384 454.304L217.488 456.135L216.396 457.767L216.437 458.29L217.72 460.376L217.743 461.16L217.118 462.694L213.406 466.041L212.834 467.052L212.016 470.192L210.611 471.711L209.774 472.296L204.827 473.841L203.596 473.924L200.308 472.847L198.93 473.045L194.683 475.689L193.166 476.951L192.345 478.805L188.364 485.359L183.333 492.016L182.472 493.57V495.432L182.948 496.487L182.989 498.7L183.611 501.428L186.446 508.259L187.995 512.906L189.757 516.845L191.142 522.156L192.725 525.109L192.92 526.239L192.077 529.23L192.054 530.75L192.859 533.91L192.95 535.725L193.586 538.626L194.322 540.268L193.465 541.477L193.548 542.679L192.238 547.073L187.741 556.059L185.048 558.208L183.509 561.103L180.868 564.433L179.873 566.288L174.284 572.763L173.39 575.187L171.329 578.509L170.271 579.349L169.231 581.756L167.187 583.252L165.169 585.319L160.045 585.988L157.23 587.404L155.104 587.983L152.518 589.876L150.341 590.696L146.189 593.253L144.486 593.903L142.091 594.332L112.159 459.563L108.296 444.557L107.896 444.586L89.454 432.407L58.589 410.561L58.396 408.419L99.579 397.492L116.922 397.21L123.521 394.924L138.974 390.779L144.194 387.41L147.779 386.536L149.475 385.539L151.591 385.844L154.445 385.07L155.308 385.512L155.851 386.527L155.971 387.478L157.672 390.767L159.27 391.693L161.372 392.372L163.18 393.325L164.236 395.612L165.199 396.535L167.594 396.997L169.075 397.644L169.917 397.489L170.166 396.661L169.599 395.859L167.077 393.152L165.464 391.811L165.106 390.893L166.27 390.093L167.202 388.229L167.225 387.403L166.622 385.448L167.068 384.844L167.982 384.446L168.932 382.994L170.548 382.174L171.188 380.797L170.903 380.246L169.234 379.344L168.949 378.735L168.78 376.357L168.436 375.436L168.376 372.528L168.853 371.923L172.465 371.7L172.716 371.197L171.962 370.124L169.143 368.425L167.233 367.839L166.444 365.995L165.493 365.238L166.018 363.246L166.694 362.922L167.354 362.19Z" fill="white" stroke="black" stroke-width="0.5"/>
</svg>